<?xml version="1.0" encoding="utf-8"?>
<svg viewBox="134.269 -10.244 247.491 368.399" width="247.491" height="368.399" xmlns="http://www.w3.org/2000/svg">
  <path style="stroke-linecap: round; stroke-linejoin: round; stroke-dasharray: 20px; stroke-width: 8px; stroke: rgb(255, 36, 36); fill: none; stroke-dashoffset: -6px;" d="M 242.953 227.06 C 287.091 227.78 275.61 224.181 273.176 227.06 C 268.228 228.709 268.737 190.034 272.504 188.778 C 271.288 199.72 211.981 189.47 212.058 188.778 C 220.481 191.748 219.69 268.167 210.715 265.342 C 210.715 249.722 304.07 249.294 304.07 265.342 C 295.36 269.845 294.647 155.395 303.398 151.167 C 304.081 157.659 183.912 171.574 181.835 151.839 C 187.891 151.839 185.231 302.281 181.164 302.281 C 182.43 278.24 335.933 274.59 334.293 302.953 C 315.294 310.553 324.835 98.534 334.293 94.751 C 330.736 147.27 148.694 141.451 150.941 95.423 C 166.735 101.009 165.069 345.827 150.269 341.235 C 172.912 292.446 377.964 312.287 365.187 341.907 C 342.43 352.098 348.198 44.826 364.516 37.664 C 332.927 -89.098 223.739 217.035 242.953 227.06 Z"/>
</svg>